<?xml version="1.0" encoding="utf-8"?>
<!-- Generator: Adobe Illustrator 16.0.0, SVG Export Plug-In . SVG Version: 6.00 Build 0)  -->
<!DOCTYPE svg PUBLIC "-//W3C//DTD SVG 1.1//EN" "http://www.w3.org/Graphics/SVG/1.1/DTD/svg11.dtd">
<svg version="1.1" id="Layer_1" xmlns="http://www.w3.org/2000/svg" xmlns:xlink="http://www.w3.org/1999/xlink" x="0px" y="0px"
	 width="612px" height="792px" viewBox="0 0 612 792" enable-background="new 0 0 612 792" xml:space="preserve">
<path fill="white" d="M483.537,646.53l72.993-72.993c12.729-12.729,12.729-33.178,0-45.907L424.901,396l131.63-131.63
	c12.729-12.729,12.729-33.179,0-45.908l-72.993-72.992c-12.729-12.729-33.178-12.729-45.908,0L306,277.1L174.37,145.47
	c-12.73-12.729-33.179-12.729-45.909,0L55.47,218.462c-12.73,12.729-12.73,33.179,0,45.908L187.1,396L55.47,527.63
	c-12.73,12.729-12.73,33.179,0,45.907l72.992,72.993c12.73,12.729,33.179,12.729,45.909,0L306,514.9l131.629,131.63
	C450.224,659.124,470.808,659.124,483.537,646.53z"/>
</svg>
