<?xml version="1.0" encoding="utf-8"?>
<!-- Generator: Adobe Illustrator 16.0.0, SVG Export Plug-In . SVG Version: 6.00 Build 0)  -->
<!DOCTYPE svg PUBLIC "-//W3C//DTD SVG 1.1//EN" "http://www.w3.org/Graphics/SVG/1.1/DTD/svg11.dtd">
<svg version="1.1" id="Layer_1" xmlns="http://www.w3.org/2000/svg" xmlns:xlink="http://www.w3.org/1999/xlink" x="0px" y="0px"
	 width="612px" height="792px" viewBox="0 0 612 792" enable-background="new 0 0 612 792" xml:space="preserve">
<path fill="white" d="M550.616,579.422l-97.946-97.946c-4.421-4.421-10.414-6.877-16.701-6.877h-16.013
	c27.113-34.679,43.226-78.299,43.226-125.749c0-112.879-91.463-204.341-204.341-204.341c-112.879,0-204.341,91.462-204.341,204.341
	c0,112.88,91.462,204.342,204.341,204.342c47.45,0,91.069-16.112,125.749-43.227v16.014c0,6.287,2.456,12.279,6.877,16.7
	l97.945,97.946c9.235,9.235,24.168,9.235,33.304,0l27.803-27.802C559.752,603.589,559.752,588.655,550.616,579.422z
	 M258.841,474.599c-69.457,0-125.748-56.194-125.748-125.749c0-69.456,56.194-125.749,125.748-125.749
	c69.456,0,125.749,56.194,125.749,125.749C384.589,418.307,328.396,474.599,258.841,474.599z"/>
</svg>
